<mxfile host="app.diagrams.net" modified="2020-10-04T01:31:43.225Z" agent="5.0 (Windows NT 10.0; Win64; x64) AppleWebKit/537.36 (KHTML, like Gecko) Chrome/85.0.4183.121 Safari/537.36" etag="q2Ae_KcT4UnRsPCqT_B_" version="13.7.7" type="github">
  <diagram id="R2lEEEUBdFMjLlhIrx00" name="Page-1">
    <mxGraphModel dx="1550" dy="1813" grid="1" gridSize="10" guides="1" tooltips="1" connect="1" arrows="1" fold="1" page="1" pageScale="1" pageWidth="850" pageHeight="1100" math="0" shadow="0" extFonts="Permanent Marker^https://fonts.googleapis.com/css?family=Permanent+Marker">
      <root>
        <mxCell id="0" />
        <mxCell id="1" parent="0" />
        <mxCell id="-gFBIiaaTFmmzirVs_EE-34" value="EDRP_REPL_REFRESH_DATES" style="shape=table;startSize=20;container=1;collapsible=1;childLayout=tableLayout;fixedRows=1;rowLines=0;fontStyle=1;align=center;resizeLast=1;" parent="1" vertex="1">
          <mxGeometry x="260" y="10" width="300" height="470" as="geometry">
            <mxRectangle x="120" y="120" width="100" height="30" as="alternateBounds" />
          </mxGeometry>
        </mxCell>
        <mxCell id="-gFBIiaaTFmmzirVs_EE-35" value="" style="shape=partialRectangle;collapsible=0;dropTarget=0;pointerEvents=0;fillColor=none;points=[[0,0.5],[1,0.5]];portConstraint=eastwest;top=0;left=0;right=0;bottom=1;" parent="-gFBIiaaTFmmzirVs_EE-34" vertex="1">
          <mxGeometry y="20" width="300" height="30" as="geometry" />
        </mxCell>
        <mxCell id="-gFBIiaaTFmmzirVs_EE-36" value="PK" style="shape=partialRectangle;overflow=hidden;connectable=0;fillColor=none;top=0;left=0;bottom=0;right=0;fontStyle=1;" parent="-gFBIiaaTFmmzirVs_EE-35" vertex="1">
          <mxGeometry width="30" height="30" as="geometry" />
        </mxCell>
        <mxCell id="-gFBIiaaTFmmzirVs_EE-37" value="EDRP_RRD_SYSID NUMBER(10) NOT NULL" style="shape=partialRectangle;overflow=hidden;connectable=0;fillColor=none;top=0;left=0;bottom=0;right=0;align=left;spacingLeft=6;fontStyle=5;" parent="-gFBIiaaTFmmzirVs_EE-35" vertex="1">
          <mxGeometry x="30" width="270" height="30" as="geometry" />
        </mxCell>
        <mxCell id="-gFBIiaaTFmmzirVs_EE-38" value="" style="shape=partialRectangle;collapsible=0;dropTarget=0;pointerEvents=0;fillColor=none;points=[[0,0.5],[1,0.5]];portConstraint=eastwest;top=0;left=0;right=0;bottom=0;" parent="-gFBIiaaTFmmzirVs_EE-34" vertex="1">
          <mxGeometry y="50" width="300" height="30" as="geometry" />
        </mxCell>
        <mxCell id="-gFBIiaaTFmmzirVs_EE-39" value="" style="shape=partialRectangle;overflow=hidden;connectable=0;fillColor=none;top=0;left=0;bottom=0;right=0;" parent="-gFBIiaaTFmmzirVs_EE-38" vertex="1">
          <mxGeometry width="30" height="30" as="geometry" />
        </mxCell>
        <mxCell id="-gFBIiaaTFmmzirVs_EE-40" value="OBJECT_OWNER VARCHAR2(30)" style="shape=partialRectangle;overflow=hidden;connectable=0;fillColor=none;top=0;left=0;bottom=0;right=0;align=left;spacingLeft=6;" parent="-gFBIiaaTFmmzirVs_EE-38" vertex="1">
          <mxGeometry x="30" width="270" height="30" as="geometry" />
        </mxCell>
        <mxCell id="-gFBIiaaTFmmzirVs_EE-41" value="" style="shape=partialRectangle;collapsible=0;dropTarget=0;pointerEvents=0;fillColor=none;points=[[0,0.5],[1,0.5]];portConstraint=eastwest;top=0;left=0;right=0;bottom=0;" parent="-gFBIiaaTFmmzirVs_EE-34" vertex="1">
          <mxGeometry y="80" width="300" height="30" as="geometry" />
        </mxCell>
        <mxCell id="-gFBIiaaTFmmzirVs_EE-42" value="" style="shape=partialRectangle;overflow=hidden;connectable=0;fillColor=none;top=0;left=0;bottom=0;right=0;" parent="-gFBIiaaTFmmzirVs_EE-41" vertex="1">
          <mxGeometry width="30" height="30" as="geometry" />
        </mxCell>
        <mxCell id="-gFBIiaaTFmmzirVs_EE-43" value="OBJECT_NAME VARCHAR2(30)" style="shape=partialRectangle;overflow=hidden;connectable=0;fillColor=none;top=0;left=0;bottom=0;right=0;align=left;spacingLeft=6;" parent="-gFBIiaaTFmmzirVs_EE-41" vertex="1">
          <mxGeometry x="30" width="270" height="30" as="geometry" />
        </mxCell>
        <mxCell id="-gFBIiaaTFmmzirVs_EE-44" value="" style="shape=partialRectangle;collapsible=0;dropTarget=0;pointerEvents=0;fillColor=none;points=[[0,0.5],[1,0.5]];portConstraint=eastwest;top=0;left=0;right=0;bottom=0;" parent="-gFBIiaaTFmmzirVs_EE-34" vertex="1">
          <mxGeometry y="110" width="300" height="30" as="geometry" />
        </mxCell>
        <mxCell id="-gFBIiaaTFmmzirVs_EE-45" value="" style="shape=partialRectangle;overflow=hidden;connectable=0;fillColor=none;top=0;left=0;bottom=0;right=0;" parent="-gFBIiaaTFmmzirVs_EE-44" vertex="1">
          <mxGeometry width="30" height="30" as="geometry" />
        </mxCell>
        <mxCell id="-gFBIiaaTFmmzirVs_EE-46" value="OBJECT_TYPE VARCHAR2(20)" style="shape=partialRectangle;overflow=hidden;connectable=0;fillColor=none;top=0;left=0;bottom=0;right=0;align=left;spacingLeft=6;" parent="-gFBIiaaTFmmzirVs_EE-44" vertex="1">
          <mxGeometry x="30" width="270" height="30" as="geometry" />
        </mxCell>
        <mxCell id="LpbPCMTC6_ZlXAUZ8kHY-16" value="" style="shape=partialRectangle;collapsible=0;dropTarget=0;pointerEvents=0;fillColor=none;points=[[0,0.5],[1,0.5]];portConstraint=eastwest;top=0;left=0;right=0;bottom=0;" vertex="1" parent="-gFBIiaaTFmmzirVs_EE-34">
          <mxGeometry y="140" width="300" height="30" as="geometry" />
        </mxCell>
        <mxCell id="LpbPCMTC6_ZlXAUZ8kHY-17" value="" style="shape=partialRectangle;overflow=hidden;connectable=0;fillColor=none;top=0;left=0;bottom=0;right=0;" vertex="1" parent="LpbPCMTC6_ZlXAUZ8kHY-16">
          <mxGeometry width="30" height="30" as="geometry" />
        </mxCell>
        <mxCell id="LpbPCMTC6_ZlXAUZ8kHY-18" value="PARENT_OBJECT_OWNER VARCHAR2(30)" style="shape=partialRectangle;overflow=hidden;connectable=0;fillColor=none;top=0;left=0;bottom=0;right=0;align=left;spacingLeft=6;" vertex="1" parent="LpbPCMTC6_ZlXAUZ8kHY-16">
          <mxGeometry x="30" width="270" height="30" as="geometry" />
        </mxCell>
        <mxCell id="LpbPCMTC6_ZlXAUZ8kHY-19" value="" style="shape=partialRectangle;collapsible=0;dropTarget=0;pointerEvents=0;fillColor=none;points=[[0,0.5],[1,0.5]];portConstraint=eastwest;top=0;left=0;right=0;bottom=0;" vertex="1" parent="-gFBIiaaTFmmzirVs_EE-34">
          <mxGeometry y="170" width="300" height="30" as="geometry" />
        </mxCell>
        <mxCell id="LpbPCMTC6_ZlXAUZ8kHY-20" value="" style="shape=partialRectangle;overflow=hidden;connectable=0;fillColor=none;top=0;left=0;bottom=0;right=0;" vertex="1" parent="LpbPCMTC6_ZlXAUZ8kHY-19">
          <mxGeometry width="30" height="30" as="geometry" />
        </mxCell>
        <mxCell id="LpbPCMTC6_ZlXAUZ8kHY-21" value="PARENT_OBJECT_NAME VARCHAR2(30)" style="shape=partialRectangle;overflow=hidden;connectable=0;fillColor=none;top=0;left=0;bottom=0;right=0;align=left;spacingLeft=6;" vertex="1" parent="LpbPCMTC6_ZlXAUZ8kHY-19">
          <mxGeometry x="30" width="270" height="30" as="geometry" />
        </mxCell>
        <mxCell id="LpbPCMTC6_ZlXAUZ8kHY-22" value="" style="shape=partialRectangle;collapsible=0;dropTarget=0;pointerEvents=0;fillColor=none;points=[[0,0.5],[1,0.5]];portConstraint=eastwest;top=0;left=0;right=0;bottom=0;" vertex="1" parent="-gFBIiaaTFmmzirVs_EE-34">
          <mxGeometry y="200" width="300" height="30" as="geometry" />
        </mxCell>
        <mxCell id="LpbPCMTC6_ZlXAUZ8kHY-23" value="" style="shape=partialRectangle;overflow=hidden;connectable=0;fillColor=none;top=0;left=0;bottom=0;right=0;" vertex="1" parent="LpbPCMTC6_ZlXAUZ8kHY-22">
          <mxGeometry width="30" height="30" as="geometry" />
        </mxCell>
        <mxCell id="LpbPCMTC6_ZlXAUZ8kHY-24" value="PARENT_OBJECT_TYPE VARCHAR2(20)" style="shape=partialRectangle;overflow=hidden;connectable=0;fillColor=none;top=0;left=0;bottom=0;right=0;align=left;spacingLeft=6;" vertex="1" parent="LpbPCMTC6_ZlXAUZ8kHY-22">
          <mxGeometry x="30" width="270" height="30" as="geometry" />
        </mxCell>
        <mxCell id="LpbPCMTC6_ZlXAUZ8kHY-69" value="" style="shape=partialRectangle;collapsible=0;dropTarget=0;pointerEvents=0;fillColor=none;points=[[0,0.5],[1,0.5]];portConstraint=eastwest;top=0;left=0;right=0;bottom=0;" vertex="1" parent="-gFBIiaaTFmmzirVs_EE-34">
          <mxGeometry y="230" width="300" height="30" as="geometry" />
        </mxCell>
        <mxCell id="LpbPCMTC6_ZlXAUZ8kHY-70" value="" style="shape=partialRectangle;overflow=hidden;connectable=0;fillColor=none;top=0;left=0;bottom=0;right=0;" vertex="1" parent="LpbPCMTC6_ZlXAUZ8kHY-69">
          <mxGeometry width="30" height="30" as="geometry" />
        </mxCell>
        <mxCell id="LpbPCMTC6_ZlXAUZ8kHY-71" value="FME_TIMESTAMP DATE" style="shape=partialRectangle;overflow=hidden;connectable=0;fillColor=none;top=0;left=0;bottom=0;right=0;align=left;spacingLeft=6;" vertex="1" parent="LpbPCMTC6_ZlXAUZ8kHY-69">
          <mxGeometry x="30" width="270" height="30" as="geometry" />
        </mxCell>
        <mxCell id="LpbPCMTC6_ZlXAUZ8kHY-73" value="" style="shape=partialRectangle;collapsible=0;dropTarget=0;pointerEvents=0;fillColor=none;points=[[0,0.5],[1,0.5]];portConstraint=eastwest;top=0;left=0;right=0;bottom=0;" vertex="1" parent="-gFBIiaaTFmmzirVs_EE-34">
          <mxGeometry y="260" width="300" height="30" as="geometry" />
        </mxCell>
        <mxCell id="LpbPCMTC6_ZlXAUZ8kHY-74" value="" style="shape=partialRectangle;overflow=hidden;connectable=0;fillColor=none;top=0;left=0;bottom=0;right=0;" vertex="1" parent="LpbPCMTC6_ZlXAUZ8kHY-73">
          <mxGeometry width="30" height="30" as="geometry" />
        </mxCell>
        <mxCell id="LpbPCMTC6_ZlXAUZ8kHY-75" value="TAB_MOD_TIMESTAMP DATE" style="shape=partialRectangle;overflow=hidden;connectable=0;fillColor=none;top=0;left=0;bottom=0;right=0;align=left;spacingLeft=6;" vertex="1" parent="LpbPCMTC6_ZlXAUZ8kHY-73">
          <mxGeometry x="30" width="270" height="30" as="geometry" />
        </mxCell>
        <mxCell id="LpbPCMTC6_ZlXAUZ8kHY-76" value="" style="shape=partialRectangle;collapsible=0;dropTarget=0;pointerEvents=0;fillColor=none;points=[[0,0.5],[1,0.5]];portConstraint=eastwest;top=0;left=0;right=0;bottom=0;" vertex="1" parent="-gFBIiaaTFmmzirVs_EE-34">
          <mxGeometry y="290" width="300" height="30" as="geometry" />
        </mxCell>
        <mxCell id="LpbPCMTC6_ZlXAUZ8kHY-77" value="" style="shape=partialRectangle;overflow=hidden;connectable=0;fillColor=none;top=0;left=0;bottom=0;right=0;" vertex="1" parent="LpbPCMTC6_ZlXAUZ8kHY-76">
          <mxGeometry width="30" height="30" as="geometry" />
        </mxCell>
        <mxCell id="LpbPCMTC6_ZlXAUZ8kHY-78" value="MVW_TIMESTAMP DATE" style="shape=partialRectangle;overflow=hidden;connectable=0;fillColor=none;top=0;left=0;bottom=0;right=0;align=left;spacingLeft=6;" vertex="1" parent="LpbPCMTC6_ZlXAUZ8kHY-76">
          <mxGeometry x="30" width="270" height="30" as="geometry" />
        </mxCell>
        <mxCell id="LpbPCMTC6_ZlXAUZ8kHY-79" value="" style="shape=partialRectangle;collapsible=0;dropTarget=0;pointerEvents=0;fillColor=none;points=[[0,0.5],[1,0.5]];portConstraint=eastwest;top=0;left=0;right=0;bottom=0;" vertex="1" parent="-gFBIiaaTFmmzirVs_EE-34">
          <mxGeometry y="320" width="300" height="30" as="geometry" />
        </mxCell>
        <mxCell id="LpbPCMTC6_ZlXAUZ8kHY-80" value="" style="shape=partialRectangle;overflow=hidden;connectable=0;fillColor=none;top=0;left=0;bottom=0;right=0;" vertex="1" parent="LpbPCMTC6_ZlXAUZ8kHY-79">
          <mxGeometry width="30" height="30" as="geometry" />
        </mxCell>
        <mxCell id="LpbPCMTC6_ZlXAUZ8kHY-81" value="DWM_TIMESTAMP DATE" style="shape=partialRectangle;overflow=hidden;connectable=0;fillColor=none;top=0;left=0;bottom=0;right=0;align=left;spacingLeft=6;" vertex="1" parent="LpbPCMTC6_ZlXAUZ8kHY-79">
          <mxGeometry x="30" width="270" height="30" as="geometry" />
        </mxCell>
        <mxCell id="LpbPCMTC6_ZlXAUZ8kHY-82" value="" style="shape=partialRectangle;collapsible=0;dropTarget=0;pointerEvents=0;fillColor=none;points=[[0,0.5],[1,0.5]];portConstraint=eastwest;top=0;left=0;right=0;bottom=0;" vertex="1" parent="-gFBIiaaTFmmzirVs_EE-34">
          <mxGeometry y="350" width="300" height="30" as="geometry" />
        </mxCell>
        <mxCell id="LpbPCMTC6_ZlXAUZ8kHY-83" value="" style="shape=partialRectangle;overflow=hidden;connectable=0;fillColor=none;top=0;left=0;bottom=0;right=0;" vertex="1" parent="LpbPCMTC6_ZlXAUZ8kHY-82">
          <mxGeometry width="30" height="30" as="geometry" />
        </mxCell>
        <mxCell id="LpbPCMTC6_ZlXAUZ8kHY-84" value="SDR_TIMESTAMP DATE" style="shape=partialRectangle;overflow=hidden;connectable=0;fillColor=none;top=0;left=0;bottom=0;right=0;align=left;spacingLeft=6;" vertex="1" parent="LpbPCMTC6_ZlXAUZ8kHY-82">
          <mxGeometry x="30" width="270" height="30" as="geometry" />
        </mxCell>
        <mxCell id="LpbPCMTC6_ZlXAUZ8kHY-85" value="" style="shape=partialRectangle;collapsible=0;dropTarget=0;pointerEvents=0;fillColor=none;points=[[0,0.5],[1,0.5]];portConstraint=eastwest;top=0;left=0;right=0;bottom=0;" vertex="1" parent="-gFBIiaaTFmmzirVs_EE-34">
          <mxGeometry y="380" width="300" height="30" as="geometry" />
        </mxCell>
        <mxCell id="LpbPCMTC6_ZlXAUZ8kHY-86" value="" style="shape=partialRectangle;overflow=hidden;connectable=0;fillColor=none;top=0;left=0;bottom=0;right=0;" vertex="1" parent="LpbPCMTC6_ZlXAUZ8kHY-85">
          <mxGeometry width="30" height="30" as="geometry" />
        </mxCell>
        <mxCell id="LpbPCMTC6_ZlXAUZ8kHY-87" value="MIN_TIMESTAMP DATE" style="shape=partialRectangle;overflow=hidden;connectable=0;fillColor=none;top=0;left=0;bottom=0;right=0;align=left;spacingLeft=6;" vertex="1" parent="LpbPCMTC6_ZlXAUZ8kHY-85">
          <mxGeometry x="30" width="270" height="30" as="geometry" />
        </mxCell>
        <mxCell id="LpbPCMTC6_ZlXAUZ8kHY-98" value="" style="shape=partialRectangle;collapsible=0;dropTarget=0;pointerEvents=0;fillColor=none;points=[[0,0.5],[1,0.5]];portConstraint=eastwest;top=0;left=0;right=0;bottom=0;" vertex="1" parent="-gFBIiaaTFmmzirVs_EE-34">
          <mxGeometry y="410" width="300" height="30" as="geometry" />
        </mxCell>
        <mxCell id="LpbPCMTC6_ZlXAUZ8kHY-99" value="" style="shape=partialRectangle;overflow=hidden;connectable=0;fillColor=none;top=0;left=0;bottom=0;right=0;" vertex="1" parent="LpbPCMTC6_ZlXAUZ8kHY-98">
          <mxGeometry width="30" height="30" as="geometry" />
        </mxCell>
        <mxCell id="LpbPCMTC6_ZlXAUZ8kHY-100" value="MIN_TIMESTAMP DATE" style="shape=partialRectangle;overflow=hidden;connectable=0;fillColor=none;top=0;left=0;bottom=0;right=0;align=left;spacingLeft=6;" vertex="1" parent="LpbPCMTC6_ZlXAUZ8kHY-98">
          <mxGeometry x="30" width="270" height="30" as="geometry" />
        </mxCell>
        <mxCell id="LpbPCMTC6_ZlXAUZ8kHY-88" value="" style="shape=partialRectangle;collapsible=0;dropTarget=0;pointerEvents=0;fillColor=none;points=[[0,0.5],[1,0.5]];portConstraint=eastwest;top=0;left=0;right=0;bottom=0;" vertex="1" parent="-gFBIiaaTFmmzirVs_EE-34">
          <mxGeometry y="440" width="300" height="30" as="geometry" />
        </mxCell>
        <mxCell id="LpbPCMTC6_ZlXAUZ8kHY-89" value="" style="shape=partialRectangle;overflow=hidden;connectable=0;fillColor=none;top=0;left=0;bottom=0;right=0;" vertex="1" parent="LpbPCMTC6_ZlXAUZ8kHY-88">
          <mxGeometry width="30" height="30" as="geometry" />
        </mxCell>
        <mxCell id="LpbPCMTC6_ZlXAUZ8kHY-90" value="MAX_TIMESTAMP DATE" style="shape=partialRectangle;overflow=hidden;connectable=0;fillColor=none;top=0;left=0;bottom=0;right=0;align=left;spacingLeft=6;" vertex="1" parent="LpbPCMTC6_ZlXAUZ8kHY-88">
          <mxGeometry x="30" width="270" height="30" as="geometry" />
        </mxCell>
        <mxCell id="LpbPCMTC6_ZlXAUZ8kHY-91" style="edgeStyle=orthogonalEdgeStyle;rounded=0;orthogonalLoop=1;jettySize=auto;html=1;exitX=1;exitY=0.5;exitDx=0;exitDy=0;entryX=0.44;entryY=0;entryDx=0;entryDy=0;entryPerimeter=0;endArrow=ERzeroToMany;endFill=1;startArrow=ERone;startFill=0;" edge="1" parent="1" source="-gFBIiaaTFmmzirVs_EE-51" target="-gFBIiaaTFmmzirVs_EE-34">
          <mxGeometry relative="1" as="geometry" />
        </mxCell>
        <mxCell id="LpbPCMTC6_ZlXAUZ8kHY-92" style="edgeStyle=orthogonalEdgeStyle;rounded=0;orthogonalLoop=1;jettySize=auto;html=1;exitX=1;exitY=0.5;exitDx=0;exitDy=0;entryX=0;entryY=0.5;entryDx=0;entryDy=0;startArrow=ERone;startFill=0;endArrow=ERzeroToMany;endFill=1;" edge="1" parent="1" source="-gFBIiaaTFmmzirVs_EE-60" target="LpbPCMTC6_ZlXAUZ8kHY-2">
          <mxGeometry relative="1" as="geometry" />
        </mxCell>
        <mxCell id="LpbPCMTC6_ZlXAUZ8kHY-93" style="edgeStyle=orthogonalEdgeStyle;rounded=0;orthogonalLoop=1;jettySize=auto;html=1;exitX=0;exitY=0.5;exitDx=0;exitDy=0;entryX=0.5;entryY=0;entryDx=0;entryDy=0;startArrow=ERone;startFill=0;endArrow=ERzeroToOne;endFill=1;" edge="1" parent="1" source="-gFBIiaaTFmmzirVs_EE-51" target="C-vyLk0tnHw3VtMMgP7b-23">
          <mxGeometry relative="1" as="geometry" />
        </mxCell>
        <mxCell id="LpbPCMTC6_ZlXAUZ8kHY-1" value="BC Data Catalogue Resources" style="shape=table;startSize=20;container=1;collapsible=1;childLayout=tableLayout;fixedRows=1;rowLines=0;fontStyle=1;align=center;resizeLast=1;" vertex="1" parent="1">
          <mxGeometry x="490" y="-200" width="300" height="80" as="geometry">
            <mxRectangle x="120" y="120" width="100" height="30" as="alternateBounds" />
          </mxGeometry>
        </mxCell>
        <mxCell id="LpbPCMTC6_ZlXAUZ8kHY-2" value="" style="shape=partialRectangle;collapsible=0;dropTarget=0;pointerEvents=0;fillColor=none;points=[[0,0.5],[1,0.5]];portConstraint=eastwest;top=0;left=0;right=0;bottom=1;" vertex="1" parent="LpbPCMTC6_ZlXAUZ8kHY-1">
          <mxGeometry y="20" width="300" height="30" as="geometry" />
        </mxCell>
        <mxCell id="LpbPCMTC6_ZlXAUZ8kHY-3" value="PK" style="shape=partialRectangle;overflow=hidden;connectable=0;fillColor=none;top=0;left=0;bottom=0;right=0;fontStyle=1;" vertex="1" parent="LpbPCMTC6_ZlXAUZ8kHY-2">
          <mxGeometry width="30" height="30" as="geometry" />
        </mxCell>
        <mxCell id="LpbPCMTC6_ZlXAUZ8kHY-4" value="id" style="shape=partialRectangle;overflow=hidden;connectable=0;fillColor=none;top=0;left=0;bottom=0;right=0;align=left;spacingLeft=6;fontStyle=5;" vertex="1" parent="LpbPCMTC6_ZlXAUZ8kHY-2">
          <mxGeometry x="30" width="270" height="30" as="geometry" />
        </mxCell>
        <mxCell id="LpbPCMTC6_ZlXAUZ8kHY-5" value="" style="shape=partialRectangle;collapsible=0;dropTarget=0;pointerEvents=0;fillColor=none;points=[[0,0.5],[1,0.5]];portConstraint=eastwest;top=0;left=0;right=0;bottom=0;" vertex="1" parent="LpbPCMTC6_ZlXAUZ8kHY-1">
          <mxGeometry y="50" width="300" height="30" as="geometry" />
        </mxCell>
        <mxCell id="LpbPCMTC6_ZlXAUZ8kHY-6" value="" style="shape=partialRectangle;overflow=hidden;connectable=0;fillColor=none;top=0;left=0;bottom=0;right=0;" vertex="1" parent="LpbPCMTC6_ZlXAUZ8kHY-5">
          <mxGeometry width="30" height="30" as="geometry" />
        </mxCell>
        <mxCell id="LpbPCMTC6_ZlXAUZ8kHY-7" value="last_modified" style="shape=partialRectangle;overflow=hidden;connectable=0;fillColor=none;top=0;left=0;bottom=0;right=0;align=left;spacingLeft=6;" vertex="1" parent="LpbPCMTC6_ZlXAUZ8kHY-5">
          <mxGeometry x="30" width="270" height="30" as="geometry" />
        </mxCell>
        <mxCell id="-gFBIiaaTFmmzirVs_EE-47" value="BC Data Catalogue Packages" style="shape=table;startSize=20;container=1;collapsible=1;childLayout=tableLayout;fixedRows=1;rowLines=0;fontStyle=1;align=center;resizeLast=1;" parent="1" vertex="1">
          <mxGeometry x="90" y="-200" width="300" height="80" as="geometry">
            <mxRectangle x="120" y="120" width="100" height="30" as="alternateBounds" />
          </mxGeometry>
        </mxCell>
        <mxCell id="-gFBIiaaTFmmzirVs_EE-60" value="" style="shape=partialRectangle;collapsible=0;dropTarget=0;pointerEvents=0;fillColor=none;points=[[0,0.5],[1,0.5]];portConstraint=eastwest;top=0;left=0;right=0;bottom=1;" parent="-gFBIiaaTFmmzirVs_EE-47" vertex="1">
          <mxGeometry y="20" width="300" height="30" as="geometry" />
        </mxCell>
        <mxCell id="-gFBIiaaTFmmzirVs_EE-61" value="PK" style="shape=partialRectangle;overflow=hidden;connectable=0;fillColor=none;top=0;left=0;bottom=0;right=0;fontStyle=1;" parent="-gFBIiaaTFmmzirVs_EE-60" vertex="1">
          <mxGeometry width="30" height="30" as="geometry" />
        </mxCell>
        <mxCell id="-gFBIiaaTFmmzirVs_EE-62" value="id" style="shape=partialRectangle;overflow=hidden;connectable=0;fillColor=none;top=0;left=0;bottom=0;right=0;align=left;spacingLeft=6;fontStyle=5;" parent="-gFBIiaaTFmmzirVs_EE-60" vertex="1">
          <mxGeometry x="30" width="270" height="30" as="geometry" />
        </mxCell>
        <mxCell id="-gFBIiaaTFmmzirVs_EE-51" value="" style="shape=partialRectangle;collapsible=0;dropTarget=0;pointerEvents=0;fillColor=none;points=[[0,0.5],[1,0.5]];portConstraint=eastwest;top=0;left=0;right=0;bottom=0;" parent="-gFBIiaaTFmmzirVs_EE-47" vertex="1">
          <mxGeometry y="50" width="300" height="30" as="geometry" />
        </mxCell>
        <mxCell id="-gFBIiaaTFmmzirVs_EE-52" value="" style="shape=partialRectangle;overflow=hidden;connectable=0;fillColor=none;top=0;left=0;bottom=0;right=0;" parent="-gFBIiaaTFmmzirVs_EE-51" vertex="1">
          <mxGeometry width="30" height="30" as="geometry" />
        </mxCell>
        <mxCell id="-gFBIiaaTFmmzirVs_EE-53" value="object_name" style="shape=partialRectangle;overflow=hidden;connectable=0;fillColor=none;top=0;left=0;bottom=0;right=0;align=left;spacingLeft=6;" parent="-gFBIiaaTFmmzirVs_EE-51" vertex="1">
          <mxGeometry x="30" width="270" height="30" as="geometry" />
        </mxCell>
        <mxCell id="LpbPCMTC6_ZlXAUZ8kHY-95" style="edgeStyle=orthogonalEdgeStyle;rounded=0;orthogonalLoop=1;jettySize=auto;html=1;exitX=1;exitY=0.5;exitDx=0;exitDy=0;entryX=0.553;entryY=-0.007;entryDx=0;entryDy=0;entryPerimeter=0;startArrow=ERone;startFill=0;endArrow=ERzeroToOne;endFill=1;" edge="1" parent="1" source="-gFBIiaaTFmmzirVs_EE-51" target="-gFBIiaaTFmmzirVs_EE-8">
          <mxGeometry relative="1" as="geometry">
            <Array as="points">
              <mxPoint x="470" y="-135" />
              <mxPoint x="470" y="-70" />
              <mxPoint x="806" y="-70" />
            </Array>
          </mxGeometry>
        </mxCell>
        <mxCell id="-gFBIiaaTFmmzirVs_EE-21" value="EDRP_REPL_REFRESH_DATES_ROLLUP" style="shape=table;startSize=20;container=1;collapsible=1;childLayout=tableLayout;fixedRows=1;rowLines=0;fontStyle=1;align=center;resizeLast=1;" parent="1" vertex="1">
          <mxGeometry x="260" y="660" width="300" height="140" as="geometry">
            <mxRectangle x="120" y="120" width="100" height="30" as="alternateBounds" />
          </mxGeometry>
        </mxCell>
        <mxCell id="-gFBIiaaTFmmzirVs_EE-22" value="" style="shape=partialRectangle;collapsible=0;dropTarget=0;pointerEvents=0;fillColor=none;points=[[0,0.5],[1,0.5]];portConstraint=eastwest;top=0;left=0;right=0;bottom=1;" parent="-gFBIiaaTFmmzirVs_EE-21" vertex="1">
          <mxGeometry y="20" width="300" height="30" as="geometry" />
        </mxCell>
        <mxCell id="-gFBIiaaTFmmzirVs_EE-23" value="PK" style="shape=partialRectangle;overflow=hidden;connectable=0;fillColor=none;top=0;left=0;bottom=0;right=0;fontStyle=1;" parent="-gFBIiaaTFmmzirVs_EE-22" vertex="1">
          <mxGeometry width="30" height="30" as="geometry" />
        </mxCell>
        <mxCell id="-gFBIiaaTFmmzirVs_EE-24" value="EDRP_RRDR_SYSID NUMBER(10) NOT NULL" style="shape=partialRectangle;overflow=hidden;connectable=0;fillColor=none;top=0;left=0;bottom=0;right=0;align=left;spacingLeft=6;fontStyle=5;" parent="-gFBIiaaTFmmzirVs_EE-22" vertex="1">
          <mxGeometry x="30" width="270" height="30" as="geometry" />
        </mxCell>
        <mxCell id="-gFBIiaaTFmmzirVs_EE-25" value="" style="shape=partialRectangle;collapsible=0;dropTarget=0;pointerEvents=0;fillColor=none;points=[[0,0.5],[1,0.5]];portConstraint=eastwest;top=0;left=0;right=0;bottom=0;" parent="-gFBIiaaTFmmzirVs_EE-21" vertex="1">
          <mxGeometry y="50" width="300" height="30" as="geometry" />
        </mxCell>
        <mxCell id="-gFBIiaaTFmmzirVs_EE-26" value="" style="shape=partialRectangle;overflow=hidden;connectable=0;fillColor=none;top=0;left=0;bottom=0;right=0;" parent="-gFBIiaaTFmmzirVs_EE-25" vertex="1">
          <mxGeometry width="30" height="30" as="geometry" />
        </mxCell>
        <mxCell id="-gFBIiaaTFmmzirVs_EE-27" value="OBJECT_OWNER VARCHAR2(30)" style="shape=partialRectangle;overflow=hidden;connectable=0;fillColor=none;top=0;left=0;bottom=0;right=0;align=left;spacingLeft=6;" parent="-gFBIiaaTFmmzirVs_EE-25" vertex="1">
          <mxGeometry x="30" width="270" height="30" as="geometry" />
        </mxCell>
        <mxCell id="-gFBIiaaTFmmzirVs_EE-28" value="" style="shape=partialRectangle;collapsible=0;dropTarget=0;pointerEvents=0;fillColor=none;points=[[0,0.5],[1,0.5]];portConstraint=eastwest;top=0;left=0;right=0;bottom=0;" parent="-gFBIiaaTFmmzirVs_EE-21" vertex="1">
          <mxGeometry y="80" width="300" height="30" as="geometry" />
        </mxCell>
        <mxCell id="-gFBIiaaTFmmzirVs_EE-29" value="" style="shape=partialRectangle;overflow=hidden;connectable=0;fillColor=none;top=0;left=0;bottom=0;right=0;" parent="-gFBIiaaTFmmzirVs_EE-28" vertex="1">
          <mxGeometry width="30" height="30" as="geometry" />
        </mxCell>
        <mxCell id="-gFBIiaaTFmmzirVs_EE-30" value="OBJECT_NAME VARCHAR2(30)" style="shape=partialRectangle;overflow=hidden;connectable=0;fillColor=none;top=0;left=0;bottom=0;right=0;align=left;spacingLeft=6;" parent="-gFBIiaaTFmmzirVs_EE-28" vertex="1">
          <mxGeometry x="30" width="270" height="30" as="geometry" />
        </mxCell>
        <mxCell id="-gFBIiaaTFmmzirVs_EE-31" value="" style="shape=partialRectangle;collapsible=0;dropTarget=0;pointerEvents=0;fillColor=none;points=[[0,0.5],[1,0.5]];portConstraint=eastwest;top=0;left=0;right=0;bottom=0;" parent="-gFBIiaaTFmmzirVs_EE-21" vertex="1">
          <mxGeometry y="110" width="300" height="30" as="geometry" />
        </mxCell>
        <mxCell id="-gFBIiaaTFmmzirVs_EE-32" value="" style="shape=partialRectangle;overflow=hidden;connectable=0;fillColor=none;top=0;left=0;bottom=0;right=0;" parent="-gFBIiaaTFmmzirVs_EE-31" vertex="1">
          <mxGeometry width="30" height="30" as="geometry" />
        </mxCell>
        <mxCell id="-gFBIiaaTFmmzirVs_EE-33" value="LAST_REFRESH_DATE DATE" style="shape=partialRectangle;overflow=hidden;connectable=0;fillColor=none;top=0;left=0;bottom=0;right=0;align=left;spacingLeft=6;" parent="-gFBIiaaTFmmzirVs_EE-31" vertex="1">
          <mxGeometry x="30" width="270" height="30" as="geometry" />
        </mxCell>
        <mxCell id="LpbPCMTC6_ZlXAUZ8kHY-101" style="edgeStyle=orthogonalEdgeStyle;rounded=0;orthogonalLoop=1;jettySize=auto;html=1;exitX=1;exitY=0.5;exitDx=0;exitDy=0;entryX=1;entryY=0.5;entryDx=0;entryDy=0;startArrow=ERmany;startFill=0;endArrow=ERone;endFill=0;" edge="1" parent="1" source="LpbPCMTC6_ZlXAUZ8kHY-85" target="-gFBIiaaTFmmzirVs_EE-28">
          <mxGeometry relative="1" as="geometry" />
        </mxCell>
        <mxCell id="C-vyLk0tnHw3VtMMgP7b-23" value="EDRP_REPL_DATES_OVERRIDES" style="shape=table;startSize=20;container=1;collapsible=1;childLayout=tableLayout;fixedRows=1;rowLines=0;fontStyle=1;align=center;resizeLast=1;" parent="1" vertex="1">
          <mxGeometry x="10" y="490" width="300" height="140" as="geometry">
            <mxRectangle x="120" y="120" width="100" height="30" as="alternateBounds" />
          </mxGeometry>
        </mxCell>
        <mxCell id="C-vyLk0tnHw3VtMMgP7b-24" value="" style="shape=partialRectangle;collapsible=0;dropTarget=0;pointerEvents=0;fillColor=none;points=[[0,0.5],[1,0.5]];portConstraint=eastwest;top=0;left=0;right=0;bottom=1;" parent="C-vyLk0tnHw3VtMMgP7b-23" vertex="1">
          <mxGeometry y="20" width="300" height="30" as="geometry" />
        </mxCell>
        <mxCell id="C-vyLk0tnHw3VtMMgP7b-25" value="PK" style="shape=partialRectangle;overflow=hidden;connectable=0;fillColor=none;top=0;left=0;bottom=0;right=0;fontStyle=1;" parent="C-vyLk0tnHw3VtMMgP7b-24" vertex="1">
          <mxGeometry width="30" height="30" as="geometry" />
        </mxCell>
        <mxCell id="C-vyLk0tnHw3VtMMgP7b-26" value="EDRP_RRDR_SYSID NUMBER(10) NOT NULL" style="shape=partialRectangle;overflow=hidden;connectable=0;fillColor=none;top=0;left=0;bottom=0;right=0;align=left;spacingLeft=6;fontStyle=5;" parent="C-vyLk0tnHw3VtMMgP7b-24" vertex="1">
          <mxGeometry x="30" width="270" height="30" as="geometry" />
        </mxCell>
        <mxCell id="-gFBIiaaTFmmzirVs_EE-1" value="" style="shape=partialRectangle;collapsible=0;dropTarget=0;pointerEvents=0;fillColor=none;points=[[0,0.5],[1,0.5]];portConstraint=eastwest;top=0;left=0;right=0;bottom=0;" parent="C-vyLk0tnHw3VtMMgP7b-23" vertex="1">
          <mxGeometry y="50" width="300" height="30" as="geometry" />
        </mxCell>
        <mxCell id="-gFBIiaaTFmmzirVs_EE-2" value="" style="shape=partialRectangle;overflow=hidden;connectable=0;fillColor=none;top=0;left=0;bottom=0;right=0;" parent="-gFBIiaaTFmmzirVs_EE-1" vertex="1">
          <mxGeometry width="30" height="30" as="geometry" />
        </mxCell>
        <mxCell id="-gFBIiaaTFmmzirVs_EE-3" value="OBJECT_OWNER VARCHAR2(30)" style="shape=partialRectangle;overflow=hidden;connectable=0;fillColor=none;top=0;left=0;bottom=0;right=0;align=left;spacingLeft=6;" parent="-gFBIiaaTFmmzirVs_EE-1" vertex="1">
          <mxGeometry x="30" width="270" height="30" as="geometry" />
        </mxCell>
        <mxCell id="-gFBIiaaTFmmzirVs_EE-4" value="" style="shape=partialRectangle;collapsible=0;dropTarget=0;pointerEvents=0;fillColor=none;points=[[0,0.5],[1,0.5]];portConstraint=eastwest;top=0;left=0;right=0;bottom=0;" parent="C-vyLk0tnHw3VtMMgP7b-23" vertex="1">
          <mxGeometry y="80" width="300" height="30" as="geometry" />
        </mxCell>
        <mxCell id="-gFBIiaaTFmmzirVs_EE-5" value="" style="shape=partialRectangle;overflow=hidden;connectable=0;fillColor=none;top=0;left=0;bottom=0;right=0;" parent="-gFBIiaaTFmmzirVs_EE-4" vertex="1">
          <mxGeometry width="30" height="30" as="geometry" />
        </mxCell>
        <mxCell id="-gFBIiaaTFmmzirVs_EE-6" value="OBJECT_NAME VARCHAR2(30)" style="shape=partialRectangle;overflow=hidden;connectable=0;fillColor=none;top=0;left=0;bottom=0;right=0;align=left;spacingLeft=6;" parent="-gFBIiaaTFmmzirVs_EE-4" vertex="1">
          <mxGeometry x="30" width="270" height="30" as="geometry" />
        </mxCell>
        <mxCell id="C-vyLk0tnHw3VtMMgP7b-27" value="" style="shape=partialRectangle;collapsible=0;dropTarget=0;pointerEvents=0;fillColor=none;points=[[0,0.5],[1,0.5]];portConstraint=eastwest;top=0;left=0;right=0;bottom=0;" parent="C-vyLk0tnHw3VtMMgP7b-23" vertex="1">
          <mxGeometry y="110" width="300" height="30" as="geometry" />
        </mxCell>
        <mxCell id="C-vyLk0tnHw3VtMMgP7b-28" value="" style="shape=partialRectangle;overflow=hidden;connectable=0;fillColor=none;top=0;left=0;bottom=0;right=0;" parent="C-vyLk0tnHw3VtMMgP7b-27" vertex="1">
          <mxGeometry width="30" height="30" as="geometry" />
        </mxCell>
        <mxCell id="C-vyLk0tnHw3VtMMgP7b-29" value="LAST_REFRESH_DATE DATE" style="shape=partialRectangle;overflow=hidden;connectable=0;fillColor=none;top=0;left=0;bottom=0;right=0;align=left;spacingLeft=6;" parent="C-vyLk0tnHw3VtMMgP7b-27" vertex="1">
          <mxGeometry x="30" width="270" height="30" as="geometry" />
        </mxCell>
        <mxCell id="-gFBIiaaTFmmzirVs_EE-8" value="EDRP_REPL_EXCLUSION_OBJS" style="shape=table;startSize=20;container=1;collapsible=1;childLayout=tableLayout;fixedRows=1;rowLines=0;fontStyle=1;align=center;resizeLast=1;" parent="1" vertex="1">
          <mxGeometry x="640" y="490" width="300" height="110" as="geometry">
            <mxRectangle x="120" y="120" width="100" height="30" as="alternateBounds" />
          </mxGeometry>
        </mxCell>
        <mxCell id="-gFBIiaaTFmmzirVs_EE-9" value="" style="shape=partialRectangle;collapsible=0;dropTarget=0;pointerEvents=0;fillColor=none;points=[[0,0.5],[1,0.5]];portConstraint=eastwest;top=0;left=0;right=0;bottom=1;" parent="-gFBIiaaTFmmzirVs_EE-8" vertex="1">
          <mxGeometry y="20" width="300" height="30" as="geometry" />
        </mxCell>
        <mxCell id="-gFBIiaaTFmmzirVs_EE-10" value="PK" style="shape=partialRectangle;overflow=hidden;connectable=0;fillColor=none;top=0;left=0;bottom=0;right=0;fontStyle=1;" parent="-gFBIiaaTFmmzirVs_EE-9" vertex="1">
          <mxGeometry width="30" height="30" as="geometry" />
        </mxCell>
        <mxCell id="-gFBIiaaTFmmzirVs_EE-11" value="EDRP_REO_SYSID NUMBER(10) NOT NULL" style="shape=partialRectangle;overflow=hidden;connectable=0;fillColor=none;top=0;left=0;bottom=0;right=0;align=left;spacingLeft=6;fontStyle=5;" parent="-gFBIiaaTFmmzirVs_EE-9" vertex="1">
          <mxGeometry x="30" width="270" height="30" as="geometry" />
        </mxCell>
        <mxCell id="-gFBIiaaTFmmzirVs_EE-12" value="" style="shape=partialRectangle;collapsible=0;dropTarget=0;pointerEvents=0;fillColor=none;points=[[0,0.5],[1,0.5]];portConstraint=eastwest;top=0;left=0;right=0;bottom=0;" parent="-gFBIiaaTFmmzirVs_EE-8" vertex="1">
          <mxGeometry y="50" width="300" height="30" as="geometry" />
        </mxCell>
        <mxCell id="-gFBIiaaTFmmzirVs_EE-13" value="" style="shape=partialRectangle;overflow=hidden;connectable=0;fillColor=none;top=0;left=0;bottom=0;right=0;" parent="-gFBIiaaTFmmzirVs_EE-12" vertex="1">
          <mxGeometry width="30" height="30" as="geometry" />
        </mxCell>
        <mxCell id="-gFBIiaaTFmmzirVs_EE-14" value="OBJECT_OWNER VARCHAR2(30)" style="shape=partialRectangle;overflow=hidden;connectable=0;fillColor=none;top=0;left=0;bottom=0;right=0;align=left;spacingLeft=6;" parent="-gFBIiaaTFmmzirVs_EE-12" vertex="1">
          <mxGeometry x="30" width="270" height="30" as="geometry" />
        </mxCell>
        <mxCell id="-gFBIiaaTFmmzirVs_EE-15" value="" style="shape=partialRectangle;collapsible=0;dropTarget=0;pointerEvents=0;fillColor=none;points=[[0,0.5],[1,0.5]];portConstraint=eastwest;top=0;left=0;right=0;bottom=0;" parent="-gFBIiaaTFmmzirVs_EE-8" vertex="1">
          <mxGeometry y="80" width="300" height="30" as="geometry" />
        </mxCell>
        <mxCell id="-gFBIiaaTFmmzirVs_EE-16" value="" style="shape=partialRectangle;overflow=hidden;connectable=0;fillColor=none;top=0;left=0;bottom=0;right=0;" parent="-gFBIiaaTFmmzirVs_EE-15" vertex="1">
          <mxGeometry width="30" height="30" as="geometry" />
        </mxCell>
        <mxCell id="-gFBIiaaTFmmzirVs_EE-17" value="OBJECT_NAME VARCHAR2(30)" style="shape=partialRectangle;overflow=hidden;connectable=0;fillColor=none;top=0;left=0;bottom=0;right=0;align=left;spacingLeft=6;" parent="-gFBIiaaTFmmzirVs_EE-15" vertex="1">
          <mxGeometry x="30" width="270" height="30" as="geometry" />
        </mxCell>
        <mxCell id="LpbPCMTC6_ZlXAUZ8kHY-102" style="edgeStyle=orthogonalEdgeStyle;rounded=0;orthogonalLoop=1;jettySize=auto;html=1;exitX=1;exitY=0.5;exitDx=0;exitDy=0;entryX=1;entryY=0.5;entryDx=0;entryDy=0;startArrow=ERmany;startFill=0;endArrow=ERzeroToOne;endFill=1;" edge="1" parent="1" source="LpbPCMTC6_ZlXAUZ8kHY-2" target="-gFBIiaaTFmmzirVs_EE-31">
          <mxGeometry relative="1" as="geometry">
            <Array as="points">
              <mxPoint x="1060" y="-165" />
              <mxPoint x="1060" y="785" />
            </Array>
          </mxGeometry>
        </mxCell>
      </root>
    </mxGraphModel>
  </diagram>
</mxfile>
